<svg id="svg" version="1.1" xmlns="http://www.w3.org/2000/svg" xmlns:xlink="http://www.w3.org/1999/xlink" width="400" height="385.22167487684726" viewBox="0, 0, 400,385.22167487684726"><g id="svgg"><path id="path0" d="M135.586 69.846 C 135.261 70.111,134.775 71.368,134.507 72.640 C 134.239 73.911,133.618 76.773,133.126 78.998 C 132.633 81.224,132.029 83.998,131.783 85.164 C 131.537 86.329,130.901 89.277,130.371 91.715 C 129.840 94.152,129.326 96.667,129.228 97.303 C 129.130 97.938,128.648 100.193,128.156 102.312 C 127.665 104.432,126.992 107.466,126.660 109.056 C 126.329 110.645,125.606 113.940,125.054 116.378 C 124.502 118.815,124.015 121.763,123.971 122.929 L 123.892 125.048 150.340 125.147 C 173.230 125.233,176.853 125.323,177.266 125.821 C 177.813 126.481,177.514 128.703,175.891 136.031 C 175.351 138.468,174.765 141.335,174.590 142.403 C 174.414 143.470,173.900 145.984,173.447 147.990 C 172.994 149.996,172.380 152.852,172.082 154.335 C 171.784 155.819,171.083 159.200,170.524 161.850 C 169.966 164.499,169.276 167.794,168.992 169.171 C 168.455 171.776,168.060 173.671,167.100 178.227 C 166.283 182.109,164.618 190.112,163.974 193.256 C 163.670 194.740,163.140 197.254,162.797 198.844 C 162.453 200.434,161.929 202.948,161.634 204.432 C 161.338 205.915,160.645 209.210,160.093 211.753 C 159.542 214.297,158.929 217.418,158.731 218.690 C 158.533 219.961,158.220 221.522,158.035 222.158 C 157.851 222.794,157.492 224.355,157.238 225.626 C 156.716 228.244,156.176 230.846,154.716 237.765 C 154.158 240.414,153.458 243.796,153.162 245.279 C 152.866 246.763,152.195 249.884,151.671 252.216 C 151.147 254.547,150.635 257.062,150.532 257.803 C 150.429 258.545,149.882 261.233,149.317 263.776 C 148.751 266.320,148.059 269.615,147.779 271.098 C 146.707 276.779,145.932 280.413,145.423 282.153 C 145.132 283.147,144.897 284.361,144.901 284.851 C 144.907 285.623,143.868 290.604,142.505 296.339 C 142.279 297.293,141.946 298.940,141.766 300.000 C 141.586 301.060,141.259 302.707,141.039 303.661 C 140.820 304.615,140.395 306.609,140.096 308.092 C 139.620 310.454,137.975 318.170,137.336 321.043 C 136.989 322.603,136.437 322.578,171.162 322.552 C 208.023 322.524,204.763 322.757,205.314 320.115 C 205.543 319.013,205.927 317.245,206.165 316.185 C 206.403 315.125,206.764 313.218,206.966 311.946 C 207.168 310.674,207.677 308.375,208.098 306.836 C 208.519 305.297,208.863 303.603,208.863 303.073 C 208.863 302.542,209.118 301.113,209.429 299.898 C 210.150 297.081,211.836 289.241,212.101 287.476 C 212.212 286.734,212.747 284.133,213.290 281.696 C 213.833 279.258,214.535 275.890,214.849 274.211 C 215.163 272.533,215.595 270.509,215.809 269.714 C 216.193 268.290,217.083 263.883,217.670 260.501 C 217.835 259.547,218.360 257.033,218.835 254.913 C 219.310 252.794,219.946 249.846,220.247 248.362 C 221.182 243.754,222.751 236.221,223.699 231.792 C 224.197 229.461,224.885 226.166,225.228 224.470 C 225.570 222.775,226.195 219.827,226.617 217.919 C 227.040 216.012,227.540 213.584,227.730 212.524 C 227.921 211.464,228.538 208.430,229.102 205.780 C 229.666 203.131,230.280 200.096,230.466 199.037 C 230.869 196.739,232.197 190.665,232.972 187.578 C 233.277 186.363,233.526 185.007,233.526 184.565 C 233.526 184.124,233.966 181.824,234.503 179.454 C 235.041 177.084,235.750 173.844,236.078 172.254 C 236.972 167.928,237.337 166.259,237.787 164.451 C 238.010 163.550,238.343 161.859,238.526 160.694 C 238.709 159.528,239.314 156.493,239.870 153.950 C 240.426 151.407,241.063 148.285,241.286 147.013 C 241.508 145.742,242.004 143.401,242.388 141.811 C 242.773 140.222,243.197 138.141,243.331 137.187 C 243.466 136.233,243.731 134.933,243.921 134.297 C 244.112 133.661,244.554 131.667,244.905 129.865 C 245.908 124.709,242.632 125.241,273.410 125.241 C 304.026 125.241,300.796 125.722,301.840 121.002 C 302.192 119.412,302.920 116.118,303.460 113.680 C 303.999 111.243,304.714 107.948,305.048 106.358 C 305.383 104.769,305.989 102.081,306.395 100.385 C 306.801 98.690,307.290 96.522,307.481 95.568 C 307.672 94.615,308.297 91.753,308.871 89.210 C 309.444 86.667,310.136 83.459,310.407 82.081 C 310.679 80.703,311.368 77.525,311.938 75.018 C 312.937 70.622,312.949 70.441,312.267 69.924 C 311.270 69.168,136.514 69.091,135.586 69.846 " stroke="none" fill="#fafbfa" fill-rule="evenodd"></path><path id="path1" d="M0.000 192.678 L 0.000 385.356 200.000 385.356 L 400.000 385.356 400.000 192.678 L 400.000 0.000 200.000 0.000 L 0.000 0.000 0.000 192.678 M312.267 69.924 C 312.949 70.441,312.937 70.622,311.938 75.018 C 311.368 77.525,310.679 80.703,310.407 82.081 C 310.136 83.459,309.444 86.667,308.871 89.210 C 308.297 91.753,307.672 94.615,307.481 95.568 C 307.290 96.522,306.801 98.690,306.395 100.385 C 305.989 102.081,305.383 104.769,305.048 106.358 C 304.714 107.948,303.999 111.243,303.460 113.680 C 302.920 116.118,302.192 119.412,301.840 121.002 C 300.796 125.722,304.026 125.241,273.410 125.241 C 242.632 125.241,245.908 124.709,244.905 129.865 C 244.554 131.667,244.112 133.661,243.921 134.297 C 243.731 134.933,243.466 136.233,243.331 137.187 C 243.197 138.141,242.773 140.222,242.388 141.811 C 242.004 143.401,241.508 145.742,241.286 147.013 C 241.063 148.285,240.426 151.407,239.870 153.950 C 239.314 156.493,238.709 159.528,238.526 160.694 C 238.343 161.859,238.010 163.550,237.787 164.451 C 237.337 166.259,236.972 167.928,236.078 172.254 C 235.750 173.844,235.041 177.084,234.503 179.454 C 233.966 181.824,233.526 184.124,233.526 184.565 C 233.526 185.007,233.277 186.363,232.972 187.578 C 232.197 190.665,230.869 196.739,230.466 199.037 C 230.280 200.096,229.666 203.131,229.102 205.780 C 228.538 208.430,227.921 211.464,227.730 212.524 C 227.540 213.584,227.040 216.012,226.617 217.919 C 226.195 219.827,225.570 222.775,225.228 224.470 C 224.885 226.166,224.197 229.461,223.699 231.792 C 222.751 236.221,221.182 243.754,220.247 248.362 C 219.946 249.846,219.310 252.794,218.835 254.913 C 218.360 257.033,217.835 259.547,217.670 260.501 C 217.083 263.883,216.193 268.290,215.809 269.714 C 215.595 270.509,215.163 272.533,214.849 274.211 C 214.535 275.890,213.833 279.258,213.290 281.696 C 212.747 284.133,212.212 286.734,212.101 287.476 C 211.836 289.241,210.150 297.081,209.429 299.898 C 209.118 301.113,208.863 302.542,208.863 303.073 C 208.863 303.603,208.519 305.297,208.098 306.836 C 207.677 308.375,207.168 310.674,206.966 311.946 C 206.764 313.218,206.403 315.125,206.165 316.185 C 205.927 317.245,205.543 319.013,205.314 320.115 C 204.763 322.757,208.023 322.524,171.162 322.552 C 136.437 322.578,136.989 322.603,137.336 321.043 C 137.975 318.170,139.620 310.454,140.096 308.092 C 140.395 306.609,140.820 304.615,141.039 303.661 C 141.259 302.707,141.586 301.060,141.766 300.000 C 141.946 298.940,142.279 297.293,142.505 296.339 C 143.868 290.604,144.907 285.623,144.901 284.851 C 144.897 284.361,145.132 283.147,145.423 282.153 C 145.932 280.413,146.707 276.779,147.779 271.098 C 148.059 269.615,148.751 266.320,149.317 263.776 C 149.882 261.233,150.429 258.545,150.532 257.803 C 150.635 257.062,151.147 254.547,151.671 252.216 C 152.195 249.884,152.866 246.763,153.162 245.279 C 153.458 243.796,154.158 240.414,154.716 237.765 C 156.176 230.846,156.716 228.244,157.238 225.626 C 157.492 224.355,157.851 222.794,158.035 222.158 C 158.220 221.522,158.533 219.961,158.731 218.690 C 158.929 217.418,159.542 214.297,160.093 211.753 C 160.645 209.210,161.338 205.915,161.634 204.432 C 161.929 202.948,162.453 200.434,162.797 198.844 C 163.140 197.254,163.670 194.740,163.974 193.256 C 164.618 190.112,166.283 182.109,167.100 178.227 C 168.060 173.671,168.455 171.776,168.992 169.171 C 169.276 167.794,169.966 164.499,170.524 161.850 C 171.083 159.200,171.784 155.819,172.082 154.335 C 172.380 152.852,172.994 149.996,173.447 147.990 C 173.900 145.984,174.414 143.470,174.590 142.403 C 174.765 141.335,175.351 138.468,175.891 136.031 C 177.514 128.703,177.813 126.481,177.266 125.821 C 176.853 125.323,173.230 125.233,150.340 125.147 L 123.892 125.048 123.971 122.929 C 124.015 121.763,124.502 118.815,125.054 116.378 C 125.606 113.940,126.329 110.645,126.660 109.056 C 126.992 107.466,127.665 104.432,128.156 102.312 C 128.648 100.193,129.130 97.938,129.228 97.303 C 129.326 96.667,129.840 94.152,130.371 91.715 C 130.901 89.277,131.537 86.329,131.783 85.164 C 132.029 83.998,132.633 81.224,133.126 78.998 C 133.618 76.773,134.239 73.911,134.507 72.640 C 134.775 71.368,135.261 70.111,135.586 69.846 C 136.514 69.091,311.270 69.168,312.267 69.924 " stroke="none" fill="#046c64" fill-rule="evenodd"></path></g></svg>